HIERARCHY
ROOT pelvis
{
  OFFSET 0 100 0
  CHANNELS 6 Xposition Yposition Zposition Zrotation Xrotation Yrotation
  JOINT pelvis_right_femur
  {
    OFFSET -10.78128 -3.44521 -0.5502486
    CHANNELS 3 Zrotation Xrotation Yrotation
    JOINT right_femur_tibia
    {
      OFFSET -0.8047443 -44.0398 -0.1307829
      CHANNELS 3 Zrotation Xrotation Yrotation
      JOINT right_tibia_foot
      {
        OFFSET 3.006224 -47.83518 -5
        CHANNELS 3 Zrotation Xrotation Yrotation
        End Site
        {
          OFFSET 0 -5 15
        }
      }
    }
  }
  JOINT pelvis_left_femur
  {
    OFFSET 10.78128 -3.44521 -0.5502486
    CHANNELS 3 Zrotation Xrotation Yrotation
    JOINT left_femur_tibia
    {
      OFFSET 0.8047443 -44.0398 -0.1307829
      CHANNELS 3 Zrotation Xrotation Yrotation
      JOINT left_tibia_foot
      {
        OFFSET -4.370144 -48.10324 -4.275266
        CHANNELS 3 Zrotation Xrotation Yrotation
        End Site
        {
          OFFSET 0 -5 15
        }
      }
    }
  }
  JOINT pelvis_spine1
  {
    OFFSET 0 6.468898 -3.129235
    CHANNELS 3 Zrotation Xrotation Yrotation
    JOINT spine1
    {
      OFFSET 0 23.15396 4.99043
      CHANNELS 3 Zrotation Xrotation Yrotation
      JOINT spine2
      {
        OFFSET 0 20.79997 -5.064912
        CHANNELS 3 Zrotation Xrotation Yrotation
        JOINT neck
        {
          OFFSET 0 14.38658 9.616178
          CHANNELS 3 Zrotation Xrotation Yrotation
          End Site
          {
            OFFSET 0 20 0
          }
        }
      }
      JOINT right_manubrium
      {
        OFFSET -5.722621 16.35077 3.967754
        CHANNELS 3 Zrotation Xrotation Yrotation
        JOINT right_clavicle
        {
          OFFSET -13.16364 1.694482 -4.693211
          CHANNELS 3 Zrotation Xrotation Yrotation
          JOINT right_humerus
          {
            OFFSET -28.5034 -0.3100689 -2.792744
            CHANNELS 3 Zrotation Xrotation Yrotation
            JOINT right_radius
            {
              OFFSET -25.15693 0.02248979 -1.271978
              CHANNELS 3 Zrotation Xrotation Yrotation
              End Site
              {
                OFFSET -15 0 0
              }
            }
          }
        }
      }
      JOINT left_manubrium
      {
        OFFSET 5.722621 16.35077 3.967754
        CHANNELS 3 Zrotation Xrotation Yrotation
        JOINT left_clavicle
        {
          OFFSET 13.16364 1.694482 -4.693211
          CHANNELS 3 Zrotation Xrotation Yrotation
          JOINT left_humerus
          {
            OFFSET 29.39168 -1.063119 -2.237045
            CHANNELS 3 Zrotation Xrotation Yrotation
            JOINT left_radius
            {
              OFFSET 24.59957 -0.9528479 0.9047498
              CHANNELS 3 Zrotation Xrotation Yrotation
              End Site
              {
                OFFSET 15 -0 -0
              }
            }
          }
        }
      }
    }
  }
}
MOTION
Frames: 11
Frame Time: 0.0416666666667
0 103.5113 0 2.172373 -1.379371 -0.1259634 1.801287 -10.42111 9.089449 3.445337e-06 35.1808 -1.795322e-06 -5.502545 -18.49835 -3.688191 -8.001018 9.45503 -23.77595 1.809042e-06 5.600358 4.945966e-06 9.171099 -16.75357 28.52547 -4.968081 -5.084508 5.294262 2.157452 9.053512 -7.580785 1.394448 22.7279 6.438369 3.186171 -23.25788 8.689802 6.188899 -19.90865 11.34839 85.40102 35.83901 -19.17533 1.563941e-07 -2.833317e-07 16.28625 -7.063873 7.748626 3.94988 5.559631 -19.5977 -1.160815 -94.55182 29.84643 22.84128 6.076309e-07 5.289362e-07 -16.57191 4.038711 18.53383 8.759609
0.2873345 103.6463 1.461563 1.716019 -1.343758 -0.1492319 2.41267 -13.08571 9.072557 2.796979e-06 37.63118 -1.495904e-06 -5.487638 -17.49787 -3.867416 -7.667748 10.48002 -23.53471 1.45827e-06 5.403804 3.799424e-06 8.508112 -17.34808 27.45767 -4.591352 -4.518568 4.930914 2.225926 9.119193 -7.773305 1.308282 22.58205 6.622512 3.120535 -23.54449 8.893241 6.267441 -19.85263 11.41841 85.89521 35.74363 -19.50858 2.135247e-07 -1.326866e-07 16.28861 -7.015342 8.06864 4.025608 5.399817 -19.6418 -1.411276 -94.47683 29.84289 22.85927 4.190788e-07 3.919557e-07 -16.95481 4.022566 18.15445 9.082996
0.5796235 103.7805 3.005765 1.212927 -1.122351 -0.04721441 3.152949 -16.0797 8.898378 2.390459e-06 38.38461 -1.352375e-06 -5.549945 -16.27019 -3.868281 -7.264273 11.41625 -23.15065 9.11111e-07 5.268094 2.659241e-06 7.680587 -18.0701 26.2909 -4.136767 -3.882823 4.552368 2.334583 9.150155 -7.950476 1.208399 22.39166 6.863204 3.13368 -23.93223 9.0842 6.274994 -19.74534 11.48177 86.311 35.64255 -19.86437 2.954176e-07 1.496814e-08 16.09454 -7.083566 8.336123 4.171246 5.391498 -19.79186 -1.654307 -94.27035 29.73357 22.63557 2.549371e-07 2.427772e-07 -17.63179 4.130158 17.74272 9.235317
0.8709343 103.8477 4.700883 0.7762581 -0.6828899 0.1560769 3.833619 -19.15657 8.536065 2.421418e-06 37.35796 -1.569816e-06 -5.621572 -14.71759 -3.66533 -6.930741 12.25544 -22.68912 -1.139463e-07 5.251593 1.018071e-06 6.787007 -18.93731 25.08258 -3.712241 -3.273362 4.224273 2.460939 9.124798 -8.092841 1.113503 22.15635 7.148742 3.239752 -24.4075 9.260935 6.201892 -19.55832 11.50535 86.64894 35.55705 -20.28136 3.634469e-07 1.584014e-07 15.68388 -7.289081 8.529434 4.378297 5.551699 -20.03424 -1.855242 -93.91803 29.52862 22.1656 1.476452e-07 9.481707e-08 -18.56823 4.326636 17.3159 9.226306
1.156694 103.7579 6.609824 0.4702854 -0.07890366 0.4344018 4.356247 -22.20978 7.996123 2.366336e-06 34.42568 -1.768333e-06 -5.603586 -12.98381 -3.325565 -6.720336 12.96251 -22.16071 -1.399223e-06 5.38033 -7.96327e-07 5.853505 -19.98852 23.87876 -3.372446 -2.706918 3.997135 2.588855 9.037055 -8.190731 1.048935 21.90533 7.4529 3.41616 -24.90637 9.435911 6.029587 -19.29491 11.47733 86.99429 35.43235 -20.79723 3.473418e-07 2.37378e-07 15.12476 -7.663251 8.687875 4.639597 5.896074 -20.36542 -2.005306 -93.48526 29.23959 21.43825 1.029989e-07 -5.008101e-08 -19.77271 4.544873 16.86175 9.11694
1.43334 103.4798 8.758324 0.2603135 0.6492512 0.7577405 4.719406 -24.96271 7.35904 2.641155e-06 30.33585 -2.213025e-06 -5.5957 -11.15607 -2.880342 -6.613349 13.49995 -21.6246 -2.944147e-06 5.757489 -2.850663e-06 4.925197 -21.00035 22.71012 -3.109607 -2.222252 3.848576 2.720452 8.905921 -8.249308 0.9965828 21.62159 7.755148 3.645697 -25.41596 9.577897 5.830358 -18.96708 11.41365 87.18386 35.37154 -21.30416 2.90251e-07 2.796169e-07 14.4289 -8.075505 8.787981 4.921136 6.322077 -20.71175 -2.092197 -92.93549 28.91165 20.59834 1.156204e-07 -1.773828e-07 -21.01173 4.769543 16.41158 8.941455
1.697275 103.0104 11.2123 0.08038782 1.435207 1.108111 4.961524 -27.34496 6.647909 2.763382e-06 25.72386 -2.496354e-06 -5.618907 -9.447019 -2.430861 -6.521625 14.0166 -21.02981 -4.206764e-06 6.352188 -4.529639e-06 3.88669 -21.83274 21.44803 -2.874256 -1.840221 3.727175 2.850818 8.713905 -8.298123 0.9585324 21.34566 8.007061 3.857815 -25.88013 9.681965 5.600286 -18.57857 11.30251 87.35932 35.33781 -21.82451 1.948704e-07 2.78183e-07 13.6391 -8.48827 8.885325 5.201563 6.754307 -21.04485 -2.117586 -92.30647 28.56508 19.67652 1.473125e-07 -2.707777e-07 -22.25994 5.011791 15.97956 8.725204
1.94928 102.411 14.07156 -0.148311 2.135113 1.477387 5.177417 -29.05363 6.000984 2.501636e-06 21.75589 -2.445581e-06 -5.713118 -8.030159 -2.116266 -6.357981 14.5312 -20.36368 -4.862433e-06 7.425315 -5.571495e-06 2.644224 -22.22857 20.07318 -2.60325 -1.566438 3.586179 2.96268 8.475702 -8.344759 0.944673 21.13921 8.153742 3.983461 -26.24246 9.745299 5.37087 -18.1572 11.15145 87.65073 35.3069 -22.29317 1.059435e-07 2.782747e-07 12.85116 -8.853029 9.032886 5.464315 7.062178 -21.27344 -2.087841 -91.79442 28.25197 18.87805 1.560818e-07 -3.213457e-07 -23.23949 5.223764 15.58385 8.581901
2.193868 101.8223 17.45065 -0.5126583 2.694673 1.863368 5.499366 -29.87087 5.549925 1.940966e-06 19.34768 -2.080309e-06 -5.9651 -6.954693 -1.980185 -6.041948 15.0484 -19.61194 -4.684773e-06 9.262704 -5.762063e-06 1.168873 -21.88576 18.53983 -2.223729 -1.42912 3.383415 3.062259 8.22924 -8.414643 0.9315501 20.98033 8.168714 3.986546 -26.50674 9.734085 5.205363 -17.73292 10.98557 87.99803 35.33717 -22.64674 7.524928e-08 3.125373e-07 12.09675 -9.070023 9.262687 5.685949 7.114165 -21.3378 -2.014604 -91.40385 27.98457 18.39514 1.147488e-07 -3.155763e-07 -23.74347 5.404234 15.22896 8.561552
2.435502 101.4167 21.3682 -1.004786 3.016612 2.258211 5.973645 -29.73239 5.387158 1.903254e-06 18.94881 -1.928575e-06 -6.432543 -6.240019 -2.021935 -5.588283 15.36497 -18.80289 -4.130316e-06 12.09961 -5.771744e-06 -0.3568535 -20.70216 16.99974 -1.741838 -1.377936 3.128853 3.151675 8.062605 -8.510415 0.8898076 20.85111 8.067654 3.880153 -26.67125 9.6198 5.178803 -17.34859 10.86747 88.24886 35.518 -22.81348 1.549695e-07 4.140667e-07 11.39191 -9.087682 9.57359 5.852838 6.841281 -21.24055 -1.951043 -91.06916 27.77541 18.31052 3.306124e-08 -2.612506e-07 -23.65887 5.545112 14.90916 8.67938
2.682093 101.322 25.85436 -1.57808 3.073794 2.633478 6.599097 -28.64619 5.457592 1.442294e-06 19.78697 -1.377836e-06 -7.009897 -5.947896 -2.224033 -5.010372 15.27058 -17.8633 -2.786818e-06 16.18865 -4.761467e-06 -1.965219 -18.76276 15.48554 -1.150288 -1.361253 2.899487 3.218097 7.984033 -8.594701 0.8447945 20.77434 7.848697 3.668523 -26.71605 9.422523 5.220167 -17.03606 10.80216 88.49365 35.70192 -22.81667 2.312107e-07 4.707038e-07 10.8205 -9.015257 9.994499 5.984819 6.318013 -21.0201 -1.907295 -90.91911 27.56673 18.62855 -8.986387e-08 -1.759855e-07 -23.09731 5.617676 14.58902 8.946236
